<mxfile host="app.diagrams.net" modified="2023-07-23T23:01:44.017Z" agent="Mozilla/5.0 (Windows NT 10.0; Win64; x64) AppleWebKit/537.36 (KHTML, like Gecko) Chrome/114.0.0.0 Safari/537.36" etag="O1N_cU9ENTeEjgh1xDBB" version="21.6.2" type="device">
  <diagram name="Page-1" id="mR0p3h39OyCPXVYGtGrL">
    <mxGraphModel dx="1120" dy="1584" grid="1" gridSize="10" guides="1" tooltips="1" connect="1" arrows="1" fold="0" page="1" pageScale="1" pageWidth="850" pageHeight="1100" math="0" shadow="0">
      <root>
        <mxCell id="0" />
        <mxCell id="1" parent="0" />
        <mxCell id="Fdz-jyjTvgLiCB3pAayY-1" value="DATABASE" style="rounded=1;whiteSpace=wrap;html=1;" vertex="1" parent="1">
          <mxGeometry x="90" y="80" width="120" height="60" as="geometry" />
        </mxCell>
        <mxCell id="Fdz-jyjTvgLiCB3pAayY-11" value="" style="edgeStyle=orthogonalEdgeStyle;rounded=0;orthogonalLoop=1;jettySize=auto;html=1;" edge="1" parent="1" source="Fdz-jyjTvgLiCB3pAayY-2" target="Fdz-jyjTvgLiCB3pAayY-6">
          <mxGeometry relative="1" as="geometry">
            <Array as="points">
              <mxPoint x="300" y="230" />
              <mxPoint x="300" y="230" />
            </Array>
          </mxGeometry>
        </mxCell>
        <mxCell id="Fdz-jyjTvgLiCB3pAayY-2" value="TASK SERVER" style="rounded=1;whiteSpace=wrap;html=1;" vertex="1" parent="1">
          <mxGeometry x="90" y="200" width="120" height="60" as="geometry" />
        </mxCell>
        <mxCell id="Fdz-jyjTvgLiCB3pAayY-3" value="" style="endArrow=classic;html=1;rounded=0;exitX=0.5;exitY=1;exitDx=0;exitDy=0;entryX=0.5;entryY=0;entryDx=0;entryDy=0;" edge="1" parent="1" source="Fdz-jyjTvgLiCB3pAayY-1" target="Fdz-jyjTvgLiCB3pAayY-2">
          <mxGeometry width="50" height="50" relative="1" as="geometry">
            <mxPoint x="380" y="80" as="sourcePoint" />
            <mxPoint x="380" y="160" as="targetPoint" />
            <Array as="points" />
          </mxGeometry>
        </mxCell>
        <mxCell id="Fdz-jyjTvgLiCB3pAayY-4" value="GET ALL" style="rounded=1;whiteSpace=wrap;html=1;" vertex="1" parent="1">
          <mxGeometry x="320" y="-20" width="120" height="60" as="geometry" />
        </mxCell>
        <mxCell id="Fdz-jyjTvgLiCB3pAayY-5" value="GET BY ID" style="rounded=1;whiteSpace=wrap;html=1;" vertex="1" parent="1">
          <mxGeometry x="320" y="80" width="120" height="60" as="geometry" />
        </mxCell>
        <mxCell id="Fdz-jyjTvgLiCB3pAayY-6" value="CREATE" style="rounded=1;whiteSpace=wrap;html=1;" vertex="1" parent="1">
          <mxGeometry x="320" y="190" width="120" height="60" as="geometry" />
        </mxCell>
        <mxCell id="Fdz-jyjTvgLiCB3pAayY-7" value="UPDATE" style="rounded=1;whiteSpace=wrap;html=1;" vertex="1" parent="1">
          <mxGeometry x="320" y="290" width="120" height="60" as="geometry" />
        </mxCell>
        <mxCell id="Fdz-jyjTvgLiCB3pAayY-8" value="DELETE" style="rounded=1;whiteSpace=wrap;html=1;align=center;" vertex="1" parent="1">
          <mxGeometry x="320" y="390" width="120" height="60" as="geometry" />
        </mxCell>
        <mxCell id="Fdz-jyjTvgLiCB3pAayY-10" value="" style="endArrow=classic;html=1;rounded=0;" edge="1" parent="1">
          <mxGeometry width="50" height="50" relative="1" as="geometry">
            <mxPoint x="250" y="9.5" as="sourcePoint" />
            <mxPoint x="320" y="9.5" as="targetPoint" />
          </mxGeometry>
        </mxCell>
        <mxCell id="Fdz-jyjTvgLiCB3pAayY-12" value="" style="endArrow=none;html=1;rounded=0;" edge="1" parent="1">
          <mxGeometry width="50" height="50" relative="1" as="geometry">
            <mxPoint x="250" y="420" as="sourcePoint" />
            <mxPoint x="250" y="10" as="targetPoint" />
          </mxGeometry>
        </mxCell>
        <mxCell id="Fdz-jyjTvgLiCB3pAayY-13" value="" style="endArrow=classic;html=1;rounded=0;" edge="1" parent="1">
          <mxGeometry width="50" height="50" relative="1" as="geometry">
            <mxPoint x="250" y="420" as="sourcePoint" />
            <mxPoint x="320" y="419.5" as="targetPoint" />
          </mxGeometry>
        </mxCell>
        <mxCell id="Fdz-jyjTvgLiCB3pAayY-14" value="" style="endArrow=classic;html=1;rounded=0;" edge="1" parent="1">
          <mxGeometry width="50" height="50" relative="1" as="geometry">
            <mxPoint x="250" y="110" as="sourcePoint" />
            <mxPoint x="320" y="109.49857142857132" as="targetPoint" />
          </mxGeometry>
        </mxCell>
        <mxCell id="Fdz-jyjTvgLiCB3pAayY-15" value="" style="endArrow=classic;html=1;rounded=0;" edge="1" parent="1">
          <mxGeometry width="50" height="50" relative="1" as="geometry">
            <mxPoint x="250" y="320" as="sourcePoint" />
            <mxPoint x="320" y="319.5" as="targetPoint" />
          </mxGeometry>
        </mxCell>
        <mxCell id="Fdz-jyjTvgLiCB3pAayY-16" value="&lt;b&gt;&lt;font style=&quot;font-size: 18px;&quot;&gt;ROUTES&lt;/font&gt;&lt;/b&gt;" style="text;html=1;align=center;verticalAlign=middle;resizable=0;points=[];autosize=1;strokeColor=none;fillColor=none;" vertex="1" parent="1">
          <mxGeometry x="330" y="-80" width="100" height="40" as="geometry" />
        </mxCell>
        <mxCell id="Fdz-jyjTvgLiCB3pAayY-17" value="&lt;b style=&quot;border-color: var(--border-color);&quot;&gt;&lt;font style=&quot;border-color: var(--border-color); font-size: 18px;&quot;&gt;FUNCTIONS&lt;/font&gt;&lt;/b&gt;" style="text;html=1;align=center;verticalAlign=middle;resizable=0;points=[];autosize=1;strokeColor=none;fillColor=none;" vertex="1" parent="1">
          <mxGeometry x="505" y="-80" width="130" height="40" as="geometry" />
        </mxCell>
        <mxCell id="Fdz-jyjTvgLiCB3pAayY-35" value="" style="edgeStyle=orthogonalEdgeStyle;rounded=0;orthogonalLoop=1;jettySize=auto;html=1;" edge="1" parent="1" source="Fdz-jyjTvgLiCB3pAayY-18" target="Fdz-jyjTvgLiCB3pAayY-30">
          <mxGeometry relative="1" as="geometry" />
        </mxCell>
        <mxCell id="Fdz-jyjTvgLiCB3pAayY-18" value="&lt;font style=&quot;font-size: 14px;&quot;&gt;listTasks&lt;/font&gt;" style="rounded=1;whiteSpace=wrap;html=1;" vertex="1" parent="1">
          <mxGeometry x="510" y="-20" width="120" height="60" as="geometry" />
        </mxCell>
        <mxCell id="Fdz-jyjTvgLiCB3pAayY-36" value="" style="edgeStyle=orthogonalEdgeStyle;rounded=0;orthogonalLoop=1;jettySize=auto;html=1;" edge="1" parent="1" source="Fdz-jyjTvgLiCB3pAayY-19" target="Fdz-jyjTvgLiCB3pAayY-31">
          <mxGeometry relative="1" as="geometry" />
        </mxCell>
        <mxCell id="Fdz-jyjTvgLiCB3pAayY-19" value="&lt;font style=&quot;font-size: 14px;&quot;&gt;getTask&lt;/font&gt;" style="rounded=1;whiteSpace=wrap;html=1;" vertex="1" parent="1">
          <mxGeometry x="510" y="80" width="120" height="60" as="geometry" />
        </mxCell>
        <mxCell id="Fdz-jyjTvgLiCB3pAayY-40" value="" style="edgeStyle=orthogonalEdgeStyle;rounded=0;orthogonalLoop=1;jettySize=auto;html=1;" edge="1" parent="1" source="Fdz-jyjTvgLiCB3pAayY-20" target="Fdz-jyjTvgLiCB3pAayY-33">
          <mxGeometry relative="1" as="geometry" />
        </mxCell>
        <mxCell id="Fdz-jyjTvgLiCB3pAayY-20" value="&lt;font style=&quot;font-size: 14px;&quot;&gt;createTask&lt;/font&gt;" style="rounded=1;whiteSpace=wrap;html=1;" vertex="1" parent="1">
          <mxGeometry x="510" y="190" width="120" height="60" as="geometry" />
        </mxCell>
        <mxCell id="Fdz-jyjTvgLiCB3pAayY-38" value="" style="edgeStyle=orthogonalEdgeStyle;rounded=0;orthogonalLoop=1;jettySize=auto;html=1;" edge="1" parent="1" source="Fdz-jyjTvgLiCB3pAayY-21" target="Fdz-jyjTvgLiCB3pAayY-32">
          <mxGeometry relative="1" as="geometry" />
        </mxCell>
        <mxCell id="Fdz-jyjTvgLiCB3pAayY-21" value="&lt;font style=&quot;font-size: 14px;&quot;&gt;updateTask&lt;/font&gt;" style="rounded=1;whiteSpace=wrap;html=1;" vertex="1" parent="1">
          <mxGeometry x="510" y="290" width="120" height="60" as="geometry" />
        </mxCell>
        <mxCell id="Fdz-jyjTvgLiCB3pAayY-39" value="" style="edgeStyle=orthogonalEdgeStyle;rounded=0;orthogonalLoop=1;jettySize=auto;html=1;" edge="1" parent="1" source="Fdz-jyjTvgLiCB3pAayY-22" target="Fdz-jyjTvgLiCB3pAayY-34">
          <mxGeometry relative="1" as="geometry" />
        </mxCell>
        <mxCell id="Fdz-jyjTvgLiCB3pAayY-22" value="&lt;font style=&quot;font-size: 14px;&quot;&gt;deleteTask&lt;/font&gt;" style="rounded=1;whiteSpace=wrap;html=1;" vertex="1" parent="1">
          <mxGeometry x="510" y="390" width="120" height="60" as="geometry" />
        </mxCell>
        <mxCell id="Fdz-jyjTvgLiCB3pAayY-24" value="" style="endArrow=none;html=1;rounded=0;" edge="1" parent="1">
          <mxGeometry width="50" height="50" relative="1" as="geometry">
            <mxPoint x="440" y="9.5" as="sourcePoint" />
            <mxPoint x="510" y="9.5" as="targetPoint" />
          </mxGeometry>
        </mxCell>
        <mxCell id="Fdz-jyjTvgLiCB3pAayY-25" value="" style="endArrow=none;html=1;rounded=0;" edge="1" parent="1">
          <mxGeometry width="50" height="50" relative="1" as="geometry">
            <mxPoint x="440" y="109.5" as="sourcePoint" />
            <mxPoint x="510" y="109.5" as="targetPoint" />
          </mxGeometry>
        </mxCell>
        <mxCell id="Fdz-jyjTvgLiCB3pAayY-26" value="" style="endArrow=none;html=1;rounded=0;" edge="1" parent="1">
          <mxGeometry width="50" height="50" relative="1" as="geometry">
            <mxPoint x="440" y="219.5" as="sourcePoint" />
            <mxPoint x="510" y="219.5" as="targetPoint" />
          </mxGeometry>
        </mxCell>
        <mxCell id="Fdz-jyjTvgLiCB3pAayY-27" value="" style="endArrow=none;html=1;rounded=0;" edge="1" parent="1">
          <mxGeometry width="50" height="50" relative="1" as="geometry">
            <mxPoint x="440" y="319.5" as="sourcePoint" />
            <mxPoint x="510" y="319.5" as="targetPoint" />
          </mxGeometry>
        </mxCell>
        <mxCell id="Fdz-jyjTvgLiCB3pAayY-28" value="" style="endArrow=none;html=1;rounded=0;" edge="1" parent="1">
          <mxGeometry width="50" height="50" relative="1" as="geometry">
            <mxPoint x="440" y="419.5" as="sourcePoint" />
            <mxPoint x="510" y="419.5" as="targetPoint" />
          </mxGeometry>
        </mxCell>
        <mxCell id="Fdz-jyjTvgLiCB3pAayY-29" value="&lt;b style=&quot;border-color: var(--border-color);&quot;&gt;&lt;font style=&quot;border-color: var(--border-color); font-size: 18px;&quot;&gt;ENDPOINTS&lt;/font&gt;&lt;/b&gt;" style="text;html=1;align=center;verticalAlign=middle;resizable=0;points=[];autosize=1;strokeColor=none;fillColor=none;" vertex="1" parent="1">
          <mxGeometry x="710" y="-80" width="130" height="40" as="geometry" />
        </mxCell>
        <mxCell id="Fdz-jyjTvgLiCB3pAayY-47" value="" style="edgeStyle=orthogonalEdgeStyle;rounded=0;orthogonalLoop=1;jettySize=auto;html=1;" edge="1" parent="1" source="Fdz-jyjTvgLiCB3pAayY-30" target="Fdz-jyjTvgLiCB3pAayY-42">
          <mxGeometry relative="1" as="geometry" />
        </mxCell>
        <mxCell id="Fdz-jyjTvgLiCB3pAayY-30" value="&lt;font style=&quot;font-size: 14px;&quot;&gt;/tasks&lt;/font&gt;" style="rounded=1;whiteSpace=wrap;html=1;" vertex="1" parent="1">
          <mxGeometry x="720" y="-20" width="120" height="60" as="geometry" />
        </mxCell>
        <mxCell id="Fdz-jyjTvgLiCB3pAayY-48" value="" style="edgeStyle=orthogonalEdgeStyle;rounded=0;orthogonalLoop=1;jettySize=auto;html=1;" edge="1" parent="1" source="Fdz-jyjTvgLiCB3pAayY-31" target="Fdz-jyjTvgLiCB3pAayY-45">
          <mxGeometry relative="1" as="geometry" />
        </mxCell>
        <mxCell id="Fdz-jyjTvgLiCB3pAayY-31" value="&lt;font style=&quot;font-size: 14px;&quot;&gt;/task/id&lt;/font&gt;" style="rounded=1;whiteSpace=wrap;html=1;" vertex="1" parent="1">
          <mxGeometry x="720" y="80" width="120" height="60" as="geometry" />
        </mxCell>
        <mxCell id="Fdz-jyjTvgLiCB3pAayY-50" value="" style="edgeStyle=orthogonalEdgeStyle;rounded=0;orthogonalLoop=1;jettySize=auto;html=1;" edge="1" parent="1" source="Fdz-jyjTvgLiCB3pAayY-32" target="Fdz-jyjTvgLiCB3pAayY-44">
          <mxGeometry relative="1" as="geometry" />
        </mxCell>
        <mxCell id="Fdz-jyjTvgLiCB3pAayY-32" value="&lt;font style=&quot;font-size: 14px;&quot;&gt;/tasks/id&lt;/font&gt;" style="rounded=1;whiteSpace=wrap;html=1;" vertex="1" parent="1">
          <mxGeometry x="720" y="290" width="120" height="60" as="geometry" />
        </mxCell>
        <mxCell id="Fdz-jyjTvgLiCB3pAayY-49" value="" style="edgeStyle=orthogonalEdgeStyle;rounded=0;orthogonalLoop=1;jettySize=auto;html=1;" edge="1" parent="1" source="Fdz-jyjTvgLiCB3pAayY-33" target="Fdz-jyjTvgLiCB3pAayY-46">
          <mxGeometry relative="1" as="geometry" />
        </mxCell>
        <mxCell id="Fdz-jyjTvgLiCB3pAayY-33" value="&lt;font style=&quot;font-size: 14px;&quot;&gt;/task&lt;/font&gt;" style="rounded=1;whiteSpace=wrap;html=1;" vertex="1" parent="1">
          <mxGeometry x="720" y="190" width="120" height="60" as="geometry" />
        </mxCell>
        <mxCell id="Fdz-jyjTvgLiCB3pAayY-51" value="" style="edgeStyle=orthogonalEdgeStyle;rounded=0;orthogonalLoop=1;jettySize=auto;html=1;" edge="1" parent="1" source="Fdz-jyjTvgLiCB3pAayY-34" target="Fdz-jyjTvgLiCB3pAayY-43">
          <mxGeometry relative="1" as="geometry" />
        </mxCell>
        <mxCell id="Fdz-jyjTvgLiCB3pAayY-34" value="&lt;font style=&quot;font-size: 14px;&quot;&gt;/tasks/id&lt;/font&gt;" style="rounded=1;whiteSpace=wrap;html=1;" vertex="1" parent="1">
          <mxGeometry x="720" y="390" width="120" height="60" as="geometry" />
        </mxCell>
        <mxCell id="Fdz-jyjTvgLiCB3pAayY-41" value="&lt;b style=&quot;border-color: var(--border-color); color: rgb(0, 0, 0); font-family: Helvetica; font-size: 12px; font-style: normal; font-variant-ligatures: normal; font-variant-caps: normal; letter-spacing: normal; orphans: 2; text-align: center; text-indent: 0px; text-transform: none; widows: 2; word-spacing: 0px; -webkit-text-stroke-width: 0px; background-color: rgb(251, 251, 251); text-decoration-thickness: initial; text-decoration-style: initial; text-decoration-color: initial;&quot;&gt;&lt;font style=&quot;border-color: var(--border-color); font-size: 18px;&quot;&gt;METHODS&lt;/font&gt;&lt;/b&gt;" style="text;whiteSpace=wrap;html=1;" vertex="1" parent="1">
          <mxGeometry x="910" y="-80" width="140" height="50" as="geometry" />
        </mxCell>
        <mxCell id="Fdz-jyjTvgLiCB3pAayY-42" value="&lt;font style=&quot;font-size: 14px;&quot;&gt;GET&lt;/font&gt;" style="rounded=1;whiteSpace=wrap;html=1;" vertex="1" parent="1">
          <mxGeometry x="900" y="-20" width="120" height="60" as="geometry" />
        </mxCell>
        <mxCell id="Fdz-jyjTvgLiCB3pAayY-43" value="&lt;font style=&quot;font-size: 14px;&quot;&gt;DELETE&lt;/font&gt;" style="rounded=1;whiteSpace=wrap;html=1;" vertex="1" parent="1">
          <mxGeometry x="900" y="390" width="120" height="60" as="geometry" />
        </mxCell>
        <mxCell id="Fdz-jyjTvgLiCB3pAayY-44" value="&lt;font style=&quot;font-size: 14px;&quot;&gt;PUT&lt;/font&gt;" style="rounded=1;whiteSpace=wrap;html=1;" vertex="1" parent="1">
          <mxGeometry x="900" y="290" width="120" height="60" as="geometry" />
        </mxCell>
        <mxCell id="Fdz-jyjTvgLiCB3pAayY-45" value="&lt;font style=&quot;font-size: 14px;&quot;&gt;GET&lt;/font&gt;" style="rounded=1;whiteSpace=wrap;html=1;" vertex="1" parent="1">
          <mxGeometry x="900" y="80" width="120" height="60" as="geometry" />
        </mxCell>
        <mxCell id="Fdz-jyjTvgLiCB3pAayY-46" value="&lt;font style=&quot;font-size: 14px;&quot;&gt;POST&lt;/font&gt;" style="rounded=1;whiteSpace=wrap;html=1;" vertex="1" parent="1">
          <mxGeometry x="900" y="190" width="120" height="60" as="geometry" />
        </mxCell>
        <mxCell id="Fdz-jyjTvgLiCB3pAayY-55" value="" style="edgeStyle=orthogonalEdgeStyle;rounded=0;orthogonalLoop=1;jettySize=auto;html=1;" edge="1" parent="1" source="Fdz-jyjTvgLiCB3pAayY-54" target="Fdz-jyjTvgLiCB3pAayY-46">
          <mxGeometry relative="1" as="geometry" />
        </mxCell>
        <mxCell id="Fdz-jyjTvgLiCB3pAayY-54" value="&lt;font style=&quot;font-size: 14px;&quot;&gt;POSTMAN / CURL&lt;/font&gt;" style="rounded=1;whiteSpace=wrap;html=1;" vertex="1" parent="1">
          <mxGeometry x="1170" y="190" width="150" height="60" as="geometry" />
        </mxCell>
        <mxCell id="Fdz-jyjTvgLiCB3pAayY-56" value="" style="edgeStyle=orthogonalEdgeStyle;rounded=0;orthogonalLoop=1;jettySize=auto;html=1;" edge="1" parent="1">
          <mxGeometry relative="1" as="geometry">
            <mxPoint x="1110" y="9.5" as="sourcePoint" />
            <mxPoint x="1020" y="9.5" as="targetPoint" />
          </mxGeometry>
        </mxCell>
        <mxCell id="Fdz-jyjTvgLiCB3pAayY-57" value="" style="edgeStyle=orthogonalEdgeStyle;rounded=0;orthogonalLoop=1;jettySize=auto;html=1;" edge="1" parent="1">
          <mxGeometry relative="1" as="geometry">
            <mxPoint x="1110" y="109.5" as="sourcePoint" />
            <mxPoint x="1020" y="109.5" as="targetPoint" />
          </mxGeometry>
        </mxCell>
        <mxCell id="Fdz-jyjTvgLiCB3pAayY-58" value="" style="edgeStyle=orthogonalEdgeStyle;rounded=0;orthogonalLoop=1;jettySize=auto;html=1;" edge="1" parent="1">
          <mxGeometry relative="1" as="geometry">
            <mxPoint x="1110" y="319.5" as="sourcePoint" />
            <mxPoint x="1020" y="319.5" as="targetPoint" />
          </mxGeometry>
        </mxCell>
        <mxCell id="Fdz-jyjTvgLiCB3pAayY-59" value="" style="edgeStyle=orthogonalEdgeStyle;rounded=0;orthogonalLoop=1;jettySize=auto;html=1;" edge="1" parent="1">
          <mxGeometry relative="1" as="geometry">
            <mxPoint x="1110" y="419.5" as="sourcePoint" />
            <mxPoint x="1020" y="419.5" as="targetPoint" />
          </mxGeometry>
        </mxCell>
        <mxCell id="Fdz-jyjTvgLiCB3pAayY-60" value="" style="endArrow=none;html=1;rounded=0;" edge="1" parent="1">
          <mxGeometry width="50" height="50" relative="1" as="geometry">
            <mxPoint x="1110" y="420" as="sourcePoint" />
            <mxPoint x="1110" y="10" as="targetPoint" />
          </mxGeometry>
        </mxCell>
      </root>
    </mxGraphModel>
  </diagram>
</mxfile>
